<?xml version="1.0" encoding="UTF-8"?>
<svg width="120px" height="120px" viewBox="0 0 120 120" version="1.1" xmlns="http://www.w3.org/2000/svg" xmlns:xlink="http://www.w3.org/1999/xlink">
    <!-- Generator: Sketch 42 (36781) - http://www.bohemiancoding.com/sketch -->
    <title>icon-red</title>
    <desc>Created with Sketch.</desc>
    <defs></defs>
    <g id="Page-1" stroke="none" stroke-width="1" fill="none" fill-rule="evenodd">
        <g id="icon-red" fill-rule="nonzero">
            <g id="Page-1">
                <g id="icon-red">
                    <g id="Page-1">
                        <g id="icon">
                            <g id="Group">
                                <circle id="Oval" fill="#FF0032" cx="60" cy="60" r="60"></circle>
                                <path d="M67.8398427,70.1668625 C71.0508427,70.9898625 75.0708427,71.8888625 78.5138427,70.1668625 C81.9568427,68.4458625 89.4668427,64.4058625 95.0508427,66.8228625 C96.3588427,67.3888625 97.8628427,68.2968625 99.0018427,70.9318625 C100.466843,74.3228625 105.816843,73.4338625 105.300843,75.1558625 C104.783843,76.8768625 99.5508427,75.9898625 96.4188427,74.9868625 C91.0508427,76.7398625 83.1968427,74.7738625 81.2688427,75.3318625 C77.5508427,76.4058625 66.4378427,83.0288625 64.3008427,83.7398625 C43.7838427,90.5598625 38.9478427,84.3778625 37.1938427,84.2838625 C34.7998427,84.1558625 16.2518427,79.2248625 18.1338427,75.2398625 C19.5508427,72.2398625 32.2588427,79.7808625 40.5088427,74.2808625 C39.7588427,70.6138625 33.5088427,56.0308625 32.7588427,51.5308625 C31.5418427,44.2278625 33.9858427,36.3488625 34.5088427,34.4058625 C36.5088427,26.9728625 48.5398427,18.2828625 48.8838427,26.0308625 C49.2288427,33.7788625 52.0888427,39.3278625 50.8838427,36.5728625 C50.7808427,36.3378625 52.7948427,40.5048625 49.8838427,44.2398625 C43.2588427,52.7398625 44.4258427,71.1998625 44.4258427,71.1998625 C47.4628427,57.4328625 47.1198427,57.4398625 48.6338427,53.0308625 C50.0508427,48.9058625 53.6598427,43.6698625 54.0088427,43.1558625 C55.7168427,40.6418625 59.1338427,37.2808625 60.5088427,35.4058625 C60.9648427,34.7838625 62.6808427,32.2268625 64.3838427,34.4058625 C66.3858427,36.9668625 67.1508427,27.9868625 68.6998427,28.3308625 C70.2488427,28.6748625 74.7588427,40.5308625 70.2168427,55.3228625 C67.9798427,62.6098625 64.2168427,67.4058625 67.8398427,70.1668625 Z" id="Shape" fill="#FFFFFF"></path>
                            </g>
                        </g>
                    </g>
                </g>
            </g>
        </g>
    </g>
</svg>